<svg width="24" height="24" viewBox="0 0 24 24" fill="none" xmlns="http://www.w3.org/2000/svg">
<path d="M15.3327 10.1227H14.8763V8.8137C14.8763 7.25865 13.5896 6 12.0076 6C10.4255 6 9.13943 7.25859 9.13943 8.8137V10.1227H8.66717C8.02381 10.1227 7.5 10.636 7.5 11.2653V16.8574C7.5 17.4867 8.02383 18 8.66717 18H15.3328C15.9762 18 16.5 17.4867 16.5 16.8574V11.2653C16.5 10.636 15.9761 10.1227 15.3327 10.1227ZM10.5709 8.8137C10.5709 8.03382 11.2142 7.40453 12.0076 7.40453C12.8015 7.40453 13.4449 8.03382 13.4449 8.8137V10.1227H10.5656V8.8137H10.5709Z" fill="#D9D9D9"/>
</svg>
