<svg width="48" height="48" viewBox="0 0 48 48" fill="none" xmlns="http://www.w3.org/2000/svg">
<path d="M26.1777 17.0348C26.2334 17.0579 26.2841 17.0917 26.3267 17.1343L30.8657 21.6733C30.9083 21.7159 30.9421 21.7666 30.9652 21.8223C30.9882 21.878 31.0001 21.9377 31 21.998C30.9999 22.0582 30.988 22.1179 30.9648 22.1736C30.9417 22.2293 30.9078 22.2798 30.8651 22.3224C30.1705 23.0152 29.1678 23.2519 28.2334 23.0088L26.4299 24.8122C26.9957 26.1709 26.7354 27.7486 25.6783 28.806C25.5923 28.892 25.4757 28.9403 25.3541 28.9403C25.2325 28.9403 25.1158 28.892 25.0298 28.806L23.1042 26.8804L17 31L21.1196 24.8958L19.194 22.9702C19.108 22.8842 19.0597 22.7675 19.0597 22.6459C19.0597 22.5243 19.108 22.4077 19.194 22.3217C20.2514 21.2646 21.8291 21.0043 23.1878 21.5701L24.9912 19.7666C24.7482 18.8322 24.985 17.8295 25.6776 17.1349C25.7202 17.0922 25.7707 17.0583 25.8264 17.0352C25.8821 17.012 25.9418 17.0001 26.002 17C26.0623 16.9999 26.122 17.0118 26.1777 17.0348Z" fill="#D9D9D9"/>
</svg>
