<svg width="48" height="48" viewBox="0 0 48 48" fill="none" xmlns="http://www.w3.org/2000/svg">
<path d="M27.3327 22.1227H26.8763V20.8137C26.8763 19.2587 25.5896 18 24.0076 18C22.4255 18 21.1394 19.2586 21.1394 20.8137V22.1227H20.6672C20.0238 22.1227 19.5 22.636 19.5 23.2653V28.8574C19.5 29.4867 20.0238 30 20.6672 30H27.3328C27.9762 30 28.5 29.4867 28.5 28.8574V23.2653C28.5 22.636 27.9761 22.1227 27.3327 22.1227ZM22.5709 20.8137C22.5709 20.0338 23.2142 19.4045 24.0076 19.4045C24.8015 19.4045 25.4449 20.0338 25.4449 20.8137V22.1227H22.5656V20.8137H22.5709Z" fill="#D9D9D9"/>
</svg>
