<svg width="24" height="24" viewBox="0 0 24 24" fill="none" xmlns="http://www.w3.org/2000/svg">
<path d="M14.1777 5.03482C14.2334 5.05786 14.2841 5.09165 14.3267 5.13428L18.8657 9.6733C18.9083 9.71593 18.9421 9.76655 18.9652 9.82226C18.9882 9.87797 19.0001 9.93767 19 9.99796C18.9999 10.0582 18.988 10.1179 18.9648 10.1736C18.9417 10.2293 18.9078 10.2798 18.8651 10.3224C18.1705 11.0152 17.1678 11.2519 16.2334 11.0088L14.4299 12.8122C14.9957 14.1709 14.7354 15.7486 13.6783 16.806C13.5923 16.892 13.4757 16.9403 13.3541 16.9403C13.2325 16.9403 13.1158 16.892 13.0298 16.806L11.1042 14.8804L5 19L9.11959 12.8958L7.19396 10.9702C7.10799 10.8842 7.05968 10.7675 7.05968 10.6459C7.05968 10.5243 7.10799 10.4077 7.19396 10.3217C8.25143 9.26461 9.82911 9.00429 11.1878 9.57008L12.9912 7.76663C12.7482 6.83223 12.985 5.82953 13.6776 5.13491C13.7202 5.0922 13.7707 5.0583 13.8264 5.03515C13.8821 5.01201 13.9418 5.00006 14.002 5C14.0623 4.99994 14.122 5.01178 14.1777 5.03482Z" fill="#D9D9D9"/>
</svg>
